<svg xmlns="http://www.w3.org/2000/svg" viewBox="0 0 200 200">
  <path d="M 40 200 Q 40 140 100 135 Q 160 140 160 200 Z" fill="#7B4FA0"/>
  <rect x="85" y="118" width="30" height="25" fill="#FFD9B3"/>
  <circle cx="100" cy="85" r="52" fill="#FFD9B3"/>
  <path d="M 48 78 L 55 30 L 68 60 L 80 22 L 95 55 L 105 20 L 120 55 L 132 24 L 145 58 L 152 78 Q 100 40 48 78 Z" fill="#2B2440"/>
  <path d="M 60 40 L 68 60 L 75 35 Z" fill="#2EC4B6"/>
  <circle cx="46" cy="88" r="8" fill="#FFD9B3"/>
  <circle cx="154" cy="88" r="8" fill="#FFD9B3"/>
  <rect x="66" y="78" width="34" height="18" rx="9" fill="#2EC4B6"/>
  <rect x="100" y="78" width="34" height="18" rx="9" fill="#2EC4B6"/>
  <rect x="96" y="84" width="8" height="4" fill="#1B1B1B"/>
  <path d="M 82 110 Q 100 120 118 108" stroke="#2B2440" stroke-width="4" fill="none" stroke-linecap="round"/>
  <circle cx="154" cy="98" r="4" fill="#FFD23F"/>
</svg>
