<svg xmlns="http://www.w3.org/2000/svg" viewBox="0 0 200 200">
  <path d="M 40 200 Q 40 145 100 140 Q 160 145 160 200 Z" fill="#8A9A5B"/>
  <rect x="85" y="120" width="30" height="23" fill="#FFD9B3"/>
  <circle cx="100" cy="88" r="50" fill="#FFD9B3"/>
  <path d="M 50 82 Q 46 32 100 30 Q 154 32 150 82 Q 150 55 100 52 Q 52 55 50 82 Z" fill="#2B2440"/>
  <circle cx="46" cy="90" r="8" fill="#FFD9B3"/>
  <circle cx="154" cy="90" r="8" fill="#FFD9B3"/>
  <ellipse cx="80" cy="98" rx="8" ry="4" fill="#B79A8A" opacity="0.6"/>
  <ellipse cx="120" cy="98" rx="8" ry="4" fill="#B79A8A" opacity="0.6"/>
  <path d="M 74 92 L 86 92" stroke="#2B2440" stroke-width="3" stroke-linecap="round"/>
  <path d="M 114 92 L 126 92" stroke="#2B2440" stroke-width="3" stroke-linecap="round"/>
  <path d="M 88 116 Q 100 112 112 116" stroke="#2B2440" stroke-width="4" fill="none" stroke-linecap="round"/>
</svg>
