<svg xmlns="http://www.w3.org/2000/svg" viewBox="0 0 200 200">
  <path d="M 40 200 Q 40 140 100 135 Q 160 140 160 200 Z" fill="#2B2440"/>
  <path d="M 60 138 L 100 165 L 140 138 L 150 175 L 50 175 Z" fill="#3D3560"/>
  <rect x="85" y="118" width="30" height="25" fill="#FFD9B3"/>
  <circle cx="100" cy="85" r="52" fill="#FFD9B3"/>
  <path d="M 46 82 Q 42 25 100 24 Q 158 25 154 82 Q 150 45 100 42 Q 50 45 46 82 Z" fill="#1B1B1B"/>
  <circle cx="46" cy="88" r="8" fill="#FFD9B3"/>
  <circle cx="154" cy="88" r="8" fill="#FFD9B3"/>
  <rect x="66" y="80" width="34" height="16" rx="8" fill="#1B1B1B"/>
  <rect x="100" y="80" width="34" height="16" rx="8" fill="#1B1B1B"/>
  <rect x="96" y="85" width="8" height="4" fill="#1B1B1B"/>
  <path d="M 88 112 L 112 112" stroke="#2B2440" stroke-width="4" stroke-linecap="round"/>
  <rect x="140" y="150" width="18" height="10" rx="2" fill="#B7B7B7"/>
  <rect x="146" y="144" width="6" height="8" fill="#B7B7B7"/>
</svg>
