<svg xmlns="http://www.w3.org/2000/svg" viewBox="0 0 200 200">
  <path d="M 40 200 Q 40 140 100 135 Q 160 140 160 200 Z" fill="#FF6B35"/>
  <rect x="85" y="118" width="30" height="25" fill="#FFD9B3"/>
  <circle cx="100" cy="85" r="52" fill="#FFD9B3"/>
  <path d="M 46 82 Q 42 45 100 42 Q 158 45 154 82 L 154 60 L 46 60 Z" fill="#4A3B2A"/>
  <ellipse cx="100" cy="52" rx="56" ry="16" fill="#4A3B2A"/>
  <circle cx="46" cy="88" r="8" fill="#FFD9B3"/>
  <circle cx="154" cy="88" r="8" fill="#FFD9B3"/>
  <circle cx="80" cy="92" r="5" fill="#2B2440"/>
  <circle cx="120" cy="92" r="5" fill="#2B2440"/>
  <path d="M 84 114 Q 100 122 116 114" stroke="#2B2440" stroke-width="4" fill="none" stroke-linecap="round"/>
  <rect x="145" y="140" width="10" height="45" rx="3" fill="#8A8A8A" transform="rotate(25 150 160)"/>
  <circle cx="163" cy="132" r="10" fill="none" stroke="#8A8A8A" stroke-width="5"/>
</svg>
