<svg xmlns="http://www.w3.org/2000/svg" viewBox="0 0 200 200">
  <path d="M 40 200 Q 40 140 100 135 Q 160 140 160 200 Z" fill="#2EC4B6"/>
  <rect x="85" y="118" width="30" height="25" fill="#FFD9B3"/>
  <circle cx="100" cy="85" r="52" fill="#FFD9B3"/>
  <path d="M 50 78 Q 48 30 100 28 Q 150 30 150 75 Q 130 40 100 42 Q 65 44 50 78 Z" fill="#3A2E1F"/>
  <circle cx="46" cy="88" r="8" fill="#FFD9B3"/>
  <circle cx="154" cy="88" r="8" fill="#FFD9B3"/>
  <circle cx="80" cy="90" r="5" fill="#2B2440"/>
  <circle cx="120" cy="90" r="5" fill="#2B2440"/>
  <path d="M 72 72 Q 80 66 90 72" stroke="#2B2440" stroke-width="3" fill="none" stroke-linecap="round"/>
  <path d="M 110 72 Q 120 66 128 72" stroke="#2B2440" stroke-width="3" fill="none" stroke-linecap="round"/>
  <path d="M 84 112 Q 100 104 116 112" stroke="#2B2440" stroke-width="4" fill="none" stroke-linecap="round"/>
  <path d="M 148 68 Q 154 76 148 84 Q 142 76 148 68 Z" fill="#7EC8E3"/>
  <rect x="150" y="150" width="34" height="10" rx="3" fill="#8B6F47"/>
  <circle cx="158" cy="146" r="6" fill="#FFFFFF" stroke="#2B2440" stroke-width="2"/>
  <circle cx="176" cy="146" r="6" fill="#FFFFFF" stroke="#2B2440" stroke-width="2"/>
</svg>
