<svg xmlns="http://www.w3.org/2000/svg" viewBox="0 0 200 200">
  <path d="M 40 200 Q 40 140 100 135 Q 160 140 160 200 Z" fill="#FFD23F"/>
  <rect x="85" y="118" width="30" height="25" fill="#FFD9B3"/>
  <circle cx="100" cy="85" r="52" fill="#FFD9B3"/>
  <path d="M 42 85 Q 40 30 100 26 Q 160 30 158 85 Q 158 55 100 55 Q 42 55 42 85 Z" fill="#E63946"/>
  <circle cx="46" cy="88" r="8" fill="#FFD9B3"/>
  <circle cx="154" cy="88" r="8" fill="#FFD9B3"/>
  <circle cx="80" cy="90" r="5" fill="#2B2440"/>
  <circle cx="120" cy="90" r="5" fill="#2B2440"/>
  <path d="M 82 110 Q 100 122 118 110" stroke="#2B2440" stroke-width="4" fill="none" stroke-linecap="round"/>
  <rect x="150" y="120" width="6" height="55" fill="#8B6F47"/>
  <path d="M 140 172 L 166 172 L 172 190 L 134 190 Z" fill="#D8B24A"/>
</svg>
